<svg width="114" height="58" viewBox="0 0 114 58" fill="none" xmlns="http://www.w3.org/2000/svg">
<path fill-rule="evenodd" clip-rule="evenodd" d="M69.5994 31.1166C74.1892 36.0419 81.9163 46.8483 72.6164 51.3779C66.6984 54.2592 57.3951 53.093 53.2204 47.6521C47.9886 40.8327 54.3142 33.5422 60.0572 29.8467C61.7101 28.7822 63.4572 27.8494 65.2633 27.0124C66.7844 28.2972 68.2405 29.6584 69.5994 31.1166ZM113.041 17.3561C97.99 15.1668 81.2059 16.3243 66.7565 22.0235C63.9661 19.905 61.1624 18.1093 58.7177 16.7261C44.5147 8.69199 25.9681 4.46245 9.67198 5.99348C7.89118 6.16139 7.4087 8.27217 8.22434 9.49522C7.69239 8.86942 7.16801 8.23689 6.65121 7.5976C8.37222 6.3172 10.2392 5.34764 12.3563 4.64964C13.6502 4.22355 15.1451 4.14315 16.3835 3.62545C17.1213 3.31729 17.0755 2.74908 17.925 2.5227C18.1961 2.45053 18.3135 2.05345 17.9994 1.93382C17.1393 1.60691 16.8326 0.892665 15.9586 0.601788C14.582 0.142983 12.0967 0.59262 10.7453 0.879107C7.37971 1.59257 4.32329 3.19224 1.62633 5.2952C0.50019 6.17391 0.471838 7.68314 1.21519 8.80274C3.03711 11.5477 5.24874 14.0344 7.5899 16.3447C9.61874 18.3459 11.7942 20.7505 14.5185 21.7186C16.6541 22.4787 18.4463 20.1015 17.1275 18.2553C15.5186 16.002 12.9548 14.4651 10.9847 12.5116C10.1399 11.6742 9.3511 10.7967 8.58005 9.90437C8.86879 10.1469 9.23845 10.3117 9.69431 10.3489C24.4225 11.5508 38.4523 12.297 52.1081 18.6813C55.4628 20.248 58.6971 22.11 61.7205 24.263C61.4159 24.4128 61.1021 24.5506 60.7981 24.705C50.817 29.8037 40.5292 42.696 51.5623 52.5266C59.3925 59.5052 79.0616 60.1699 81.4436 47.1901C82.9658 38.8971 77.2175 31.0029 70.3354 24.9494C74.8594 23.3376 79.5811 22.1694 84.0987 21.1047C93.5157 18.8837 103.298 18.0031 112.962 17.9666C113.345 17.9648 113.446 17.4147 113.041 17.3561Z" fill="black"/>
</svg>
